<?xml version="1.0" encoding="utf-8"?>
<!-- Generator: Adobe Illustrator 16.0.3, SVG Export Plug-In . SVG Version: 6.00 Build 0)  -->
<!DOCTYPE svg PUBLIC "-//W3C//DTD SVG 1.1//EN" "http://www.w3.org/Graphics/SVG/1.1/DTD/svg11.dtd">
<svg version="1.1" xmlns="http://www.w3.org/2000/svg" xmlns:xlink="http://www.w3.org/1999/xlink" x="0px" y="0px"
	 width="294.667px" height="298.751px" viewBox="0 0 294.667 298.751" enable-background="new 0 0 294.667 298.751"
	 xml:space="preserve">
<g id="Layer_2" display="none">
	<rect x="-43.204" y="-39.083" display="inline" fill="#BFBFBF" width="361" height="398"/>
</g>
<g id="Layer_1">
	<g>
		<g>
			<polygon fill="#F9F9F9" stroke="#F2F2F2" stroke-miterlimit="10" points="107.7,235.896 230.706,270.466 233.64,270.466 
				237.007,119.232 104.581,234.485 			"/>
			<polygon fill="#F4F4F4" stroke="#F2F2F2" stroke-miterlimit="10" points="62.443,33.864 3.327,171.807 87.428,62.187 			"/>
			<polygon fill="#F9F9F9" stroke="#F2F2F2" stroke-miterlimit="10" points="1.046,173.667 104.046,233.167 86.75,61.111 			"/>
			<polyline fill="#F4F4F4" stroke="#F2F2F2" stroke-miterlimit="10" points="104.046,233.167 2.741,175.295 80.624,297.781 
				104.581,234.485 			"/>
			<polygon fill="#F7F7F7" stroke="#F2F2F2" stroke-miterlimit="10" points="81.296,297.781 228.796,270.885 104.581,234.485 			"/>
			<polygon fill="#F4F4F4" stroke="#F2F2F2" stroke-miterlimit="10" points="234.655,268.37 293.953,125.219 237.007,119.232 			"/>
			<polygon fill="#FCFCFC" stroke="#F2F2F2" stroke-miterlimit="10" points="293.655,124.229 206.835,4.479 237.007,119.232 			"/>
			<polygon fill="#F9F9F9" stroke="#F2F2F2" stroke-miterlimit="10" points="205.171,1.479 86.546,62.792 236.63,119.232 			"/>
			<polygon fill="#FCFCFC" stroke="#F2F2F2" stroke-miterlimit="10" points="87.428,62.792 202.157,2.265 63.08,33.79 			"/>
			<path fill="#E80E8A" d="M-2.137,175.185c-0.007-0.021-0.009-0.037-0.016-0.059C-2.146,175.148-2.144,175.165-2.137,175.185z"/>
			<path fill="#E80E8A" d="M-2.198,174.669c0.002-0.026,0.007-0.061,0.011-0.087C-2.191,174.609-2.196,174.643-2.198,174.669z"/>
			<path fill="#E80E8A" d="M-2.196,174.932c-0.004-0.026-0.004-0.059-0.006-0.085C-2.201,174.874-2.201,174.906-2.196,174.932z"/>
			<path fill="#E80E8A" d="M-2.187,174.583c0.011-0.063,0.03-0.129,0.052-0.188C-2.157,174.454-2.176,174.519-2.187,174.583z"/>
			<path fill="#E80E8A" d="M-2.193,174.976c0.008,0.054,0.025,0.102,0.041,0.15c-0.02-0.059-0.034-0.129-0.043-0.194
				C-2.193,174.949-2.196,174.964-2.193,174.976z"/>
			<path fill="#E80E8A" d="M-2.203,174.847c-0.002-0.061-0.002-0.119,0.004-0.178C-2.205,174.728-2.205,174.787-2.203,174.847z"/>
			<path fill="#E80E8A" d="M-2.022,175.406c-0.046-0.07-0.086-0.144-0.114-0.221C-2.109,175.265-2.068,175.335-2.022,175.406z"/>
			<path fill="#E80E8A" d="M239.131,120.631c-0.006-0.005-0.006-0.01-0.009-0.016c0.003,0.006,0.003,0.016,0.009,0.024
				C239.131,120.637,239.131,120.637,239.131,120.631z"/>
		</g>
		<polygon fill="#FCFCFC" stroke="#F2F2F2" stroke-miterlimit="10" points="87.137,62.132 104.421,234.485 235.569,119.177 		"/>
	</g>
</g>
</svg>
